<?xml version="1.0" encoding="UTF-8"?>
<svg id="Layer_1" xmlns="http://www.w3.org/2000/svg" version="1.1" viewBox="0 0 450 95.03">
  <!-- Generator: Adobe Illustrator 29.8.1, SVG Export Plug-In . SVG Version: 2.1.1 Build 2)  -->
  <path id="Discovery" d="M153.49,25.59v16.63c-2.23-2.87-5.45-5.45-10.54-5.45-7.38,0-14.34,5.8-14.34,16.1s7.08,16.1,14.34,16.1c5.04,0,8.25-2.58,10.54-5.8v5.15h7.09V25.59h-7.09ZM144.65,62.83c-4.8,0-8.9-3.86-8.9-9.95s4.04-9.95,8.9-9.95,8.96,3.92,8.96,9.95c0,6.03-4.21,9.95-8.96,9.95ZM169.17,37.42v30.91h7.08v-30.91h-7.08ZM168.88,25.59v6.73h7.61v-6.73h-7.61ZM195.3,68.92c-4.39,0-9.25-1.58-13.12-4.63l3.16-4.8c3.34,2.52,6.97,3.81,10.13,3.81s4.8-1.29,4.8-3.34v-.12c0-2.4-3.28-3.22-6.91-4.33-4.57-1.29-9.66-3.16-9.66-9.08v-.12c0-5.85,4.86-9.43,11.01-9.43,3.86,0,8.08,1.35,11.36,3.51l-2.81,5.04c-2.99-1.82-6.15-2.93-8.73-2.93-2.75,0-4.33,1.29-4.33,3.1v.12c0,2.23,3.34,3.16,6.97,4.33,4.51,1.41,9.6,3.45,9.6,9.02v.11c0,6.5-5.04,9.72-11.48,9.72ZM227.34,69.03c-9.19,0-15.99-7.2-15.99-16.04s6.79-16.22,16.04-16.22c5.86,0,9.48,2.16,12.36,5.33l-4.39,4.74c-2.17-2.28-4.45-3.86-8.02-3.86-5.15,0-8.9,4.45-8.9,9.9s3.81,10.01,9.25,10.01c3.34,0,5.8-1.58,8.02-3.86l4.27,4.22c-3.04,3.39-6.61,5.8-12.64,5.8ZM259.59,36.77c-9.48,0-16.51,7.32-16.51,16.22s6.97,16.04,16.39,16.04,16.57-7.32,16.57-16.16c0-8.9-6.97-16.1-16.45-16.1ZM259.59,62.88c-5.5,0-9.43-4.51-9.43-10.01s3.63-9.9,9.31-9.9,9.48,4.51,9.48,10.01-3.63,9.9-9.37,9.9ZM309.7,37.42l-12.65,31.15h-6.38l-12.7-31.15h7.61l8.32,22.72,8.37-22.72h7.44ZM341.65,53.46c0-8.96-4.98-16.69-14.81-16.69-8.84,0-15.11,7.26-15.11,16.16,0,9.6,6.91,16.1,15.87,16.1,5.68,0,9.72-2.28,12.65-5.8l-4.16-3.69c-2.46,2.4-4.92,3.69-8.37,3.69-4.57,0-8.08-2.81-8.9-7.85h22.72c.06-.7.12-1.28.12-1.93ZM318.75,50.71c.64-4.8,3.69-8.14,8.02-8.14,4.68,0,7.38,3.57,7.84,8.14h-15.87ZM355.4,68.33h-7.08v-30.91h7.08v6.97c1.93-4.63,5.5-7.79,10.95-7.55v7.49h-.41c-6.2,0-10.54,4.04-10.54,12.24v11.77ZM389.53,69.21c-2.46,6.32-5.21,8.67-10.19,8.67-2.99,0-5.15-.7-7.32-1.88l2.4-5.27c1.29.7,2.69,1.17,4.16,1.17,1.99,0,3.22-.88,4.39-3.57l-12.88-30.91h7.56l8.78,22.95,8.02-22.95h7.38l-12.3,31.79ZM431.95,68.33h-6.28v-18.05h-18.05v-6.28h18.05v-18.41h6.28v18.41h18.05v6.28h-18.05v18.05Z"/>
  <g>
    <path d="M35.09,30.97c-15.97,0-28.92,12.94-28.92,28.91s12.95,28.92,28.92,28.92,28.91-12.95,28.91-28.92-12.94-28.91-28.91-28.91Z"/>
    <path d="M96.97,13.43C87.79,4.77,75.79,0,63.16,0H29.02v2.54l-.03,22.64c-7.65,1.38-14.73,5.35-19.98,11.22C3.21,42.9,0,51.22,0,59.83c0,10.06,4,19.23,11.26,25.82,6.56,5.96,15.28,9.38,23.95,9.38h27.94c12.76,0,24.78-4.65,33.83-13.11,9.45-8.85,14.65-21.07,14.65-34.4s-5.21-25.12-14.67-34.09ZM63.16,92.5h-27.94c-8.04,0-16.15-3.18-22.25-8.72-6.72-6.11-10.43-14.61-10.43-23.95,0-16.54,12.66-30.62,28.99-32.46l.03-24.83h31.6c11.99,0,23.38,4.52,32.06,12.74,8.95,8.48,13.88,19.94,13.88,32.25s-4.92,24.19-13.85,32.55c-8.57,8.01-19.97,12.43-32.1,12.43Z"/>
    <path d="M105.41,47.26c0,22.75-18.45,41.2-41.2,41.2h-13.76c.9-.46,1.77-.98,2.61-1.53,8.96-5.82,14.88-15.91,14.88-27.39,0-18.02-14.6-32.63-32.62-32.65V6.06h28.9c22.75,0,41.2,18.45,41.2,41.2Z"/>
  </g>
</svg>